<?xml version="1.0" encoding="UTF-8" standalone="no"?>
<!DOCTYPE svg PUBLIC "-//W3C//DTD SVG 1.1//EN"
 "http://www.w3.org/Graphics/SVG/1.1/DTD/svg11.dtd">
<!-- Generated by graphviz version 2.40.1 (20161225.0304)
 -->
<!-- Title: dependencies Pages: 1 -->
<svg width="504pt" height="211pt"
 viewBox="0.00 0.00 504.00 211.00" xmlns="http://www.w3.org/2000/svg" xmlns:xlink="http://www.w3.org/1999/xlink">
<g id="graph0" class="graph" transform="scale(1 1) rotate(0) translate(4 207)">
<title>dependencies</title>
<polygon fill="#ffffff" stroke="transparent" points="-4,4 -4,-207 500,-207 500,4 -4,4"/>
<text text-anchor="start" x="227.0091" y="-42.4" font-family="sans-serif" font-weight="bold" font-size="14.00" fill="#000000">Legend</text>
<polygon fill="#ffffb3" stroke="transparent" points="14,-10 14,-30 34,-30 34,-10 14,-10"/>
<text text-anchor="start" x="37.629" y="-15.4" font-family="sans-serif" font-size="14.00" fill="#000000"> &#160;Declarations</text>
<polygon fill="#8dd3c7" stroke="transparent" points="127,-10 127,-30 147,-30 147,-10 127,-10"/>
<text text-anchor="start" x="150.7251" y="-15.4" font-family="sans-serif" font-size="14.00" fill="#000000"> &#160;Module</text>
<polygon fill="#80b1d3" stroke="transparent" points="213,-10 213,-30 233,-30 233,-10 213,-10"/>
<text text-anchor="start" x="236.7812" y="-15.4" font-family="sans-serif" font-size="14.00" fill="#000000"> &#160;Bootstrap</text>
<polygon fill="#fdb462" stroke="transparent" points="310,-10 310,-30 330,-30 330,-10 310,-10"/>
<text text-anchor="start" x="333.6732" y="-15.4" font-family="sans-serif" font-size="14.00" fill="#000000"> &#160;Providers</text>
<polygon fill="#fb8072" stroke="transparent" points="406,-10 406,-30 426,-30 426,-10 406,-10"/>
<text text-anchor="start" x="429.7258" y="-15.4" font-family="sans-serif" font-size="14.00" fill="#000000"> &#160;Exports</text>
<g id="clust1" class="cluster">
<title>cluster_AppModule</title>
<polygon fill="none" stroke="#000000" stroke-dasharray="1,5" points="45.5,-70 45.5,-195 450.5,-195 450.5,-70 45.5,-70"/>
</g>
<g id="clust3" class="cluster">
<title>cluster_AppModule_imports</title>
<polygon fill="none" stroke="#000000" points="191.5,-78 191.5,-130 442.5,-130 442.5,-78 191.5,-78"/>
</g>
<g id="clust6" class="cluster">
<title>cluster_AppModule_providers</title>
<polygon fill="none" stroke="#000000" points="53.5,-78 53.5,-130 183.5,-130 183.5,-78 53.5,-78"/>
</g>
<!-- SubjectsModule -->
<g id="node1" class="node">
<title>SubjectsModule</title>
<polygon fill="#8dd3c7" stroke="#000000" points="434.9874,-122 431.9874,-126 410.9874,-126 407.9874,-122 328.0126,-122 328.0126,-86 434.9874,-86 434.9874,-122"/>
<text text-anchor="middle" x="381.5" y="-99.8" font-family="Times,serif" font-size="14.00" fill="#000000">SubjectsModule</text>
</g>
<!-- AppModule -->
<g id="node3" class="node">
<title>AppModule</title>
<polygon fill="#8dd3c7" stroke="#000000" points="296.1571,-187 293.1571,-191 272.1571,-191 269.1571,-187 212.8429,-187 212.8429,-151 296.1571,-151 296.1571,-187"/>
<text text-anchor="middle" x="254.5" y="-164.8" font-family="Times,serif" font-size="14.00" fill="#000000">AppModule</text>
</g>
<!-- SubjectsModule&#45;&gt;AppModule -->
<g id="edge1" class="edge">
<title>SubjectsModule&#45;&gt;AppModule</title>
<path fill="none" stroke="#000000" d="M381.5,-122.1061C381.5,-141.3391 381.5,-169 381.5,-169 381.5,-169 306.4365,-169 306.4365,-169"/>
<polygon fill="#000000" stroke="#000000" points="306.4366,-165.5001 296.4365,-169 306.4365,-172.5001 306.4366,-165.5001"/>
</g>
<!-- TeachersModule -->
<g id="node2" class="node">
<title>TeachersModule</title>
<polygon fill="#8dd3c7" stroke="#000000" points="309.566,-122 306.566,-126 285.566,-126 282.566,-122 199.434,-122 199.434,-86 309.566,-86 309.566,-122"/>
<text text-anchor="middle" x="254.5" y="-99.8" font-family="Times,serif" font-size="14.00" fill="#000000">TeachersModule</text>
</g>
<!-- TeachersModule&#45;&gt;AppModule -->
<g id="edge2" class="edge">
<title>TeachersModule&#45;&gt;AppModule</title>
<path fill="none" stroke="#000000" d="M254.5,-122.1061C254.5,-122.1061 254.5,-140.991 254.5,-140.991"/>
<polygon fill="#000000" stroke="#000000" points="251.0001,-140.9909 254.5,-150.991 258.0001,-140.991 251.0001,-140.9909"/>
</g>
<!-- AppService -->
<g id="node4" class="node">
<title>AppService</title>
<ellipse fill="#fdb462" stroke="#000000" cx="118.5" cy="-104" rx="56.7406" ry="18"/>
<text text-anchor="middle" x="118.5" y="-99.8" font-family="Times,serif" font-size="14.00" fill="#000000">AppService</text>
</g>
<!-- AppService&#45;&gt;AppModule -->
<g id="edge3" class="edge">
<title>AppService&#45;&gt;AppModule</title>
<path fill="none" stroke="#000000" d="M118.5,-122.1061C118.5,-141.3391 118.5,-169 118.5,-169 118.5,-169 202.5858,-169 202.5858,-169"/>
<polygon fill="#000000" stroke="#000000" points="202.5858,-172.5001 212.5858,-169 202.5858,-165.5001 202.5858,-172.5001"/>
</g>
</g>
</svg>
